{"asset":{"version":"2.0","generator":"Blockbench 4.10.0 glTF exporter"},"scenes":[{"nodes":[3],"name":"blockbench_export"}],"scene":0,"nodes":[{"translation":[0,-0.125,0],"name":"cuboid","mesh":0},{"rotation":[8.655439570928008e-17,0.7071067811865475,8.655439570928007e-17,0.7071067811865476],"translation":[-0.25,-0.09375,-0.1875],"name":"cuboid","mesh":1},{"translation":[-0.1875,-0.09375,-0.25],"name":"cuboid","mesh":2},{"children":[0,1,2]}],"bufferViews":[{"buffer":0,"byteOffset":0,"byteLength":5376,"target":34962,"byteStride":12},{"buffer":0,"byteOffset":5376,"byteLength":5376,"target":34962,"byteStride":12},{"buffer":0,"byteOffset":10752,"byteLength":3584,"target":34962,"byteStride":8},{"buffer":0,"byteOffset":14336,"byteLength":1344,"target":34963},{"buffer":0,"byteOffset":15680,"byteLength":240,"target":34962,"byteStride":12},{"buffer":0,"byteOffset":15920,"byteLength":240,"target":34962,"byteStride":12},{"buffer":0,"byteOffset":16160,"byteLength":160,"target":34962,"byteStride":8},{"buffer":0,"byteOffset":16320,"byteLength":60,"target":34963},{"buffer":0,"byteOffset":16380,"byteLength":288,"target":34962,"byteStride":12},{"buffer":0,"byteOffset":16668,"byteLength":288,"target":34962,"byteStride":12},{"buffer":0,"byteOffset":16956,"byteLength":192,"target":34962,"byteStride":8},{"buffer":0,"byteOffset":17148,"byteLength":72,"target":34963}],"buffers":[{"byteLength":17220,"uri":"data:application/octet-stream;base64,"}],"accessors":[{"bufferView":0,"componentType":5126,"count":448,"max":[0.25,0.5625,0.25],"min":[-0.25,0.125,-0.25],"type":"VEC3"},{"bufferView":1,"componentType":5126,"count":448,"max":[1,1,1],"min":[-1,-1,-1],"type":"VEC3"},{"bufferView":2,"componentType":5126,"count":448,"max":[0.96875,0.96875],"min":[0,0],"type":"VEC2"},{"bufferView":3,"componentType":5123,"count":672,"max":[447],"min":[0],"type":"SCALAR"},{"bufferView":4,"componentType":5126,"count":20,"max":[0.0625,0.09375,0],"min":[-0.0625,-0.03125,0],"type":"VEC3"},{"bufferView":5,"componentType":5126,"count":20,"max":[1,0,0],"min":[0,0,-1],"type":"VEC3"},{"bufferView":6,"componentType":5126,"count":20,"max":[0.09375,0.21875],"min":[0,0],"type":"VEC2"},{"bufferView":7,"componentType":5123,"count":30,"max":[19],"min":[0],"type":"SCALAR"},{"bufferView":8,"componentType":5126,"count":24,"max":[0.0625,0.09375,0],"min":[-0.0625,-0.03125,0],"type":"VEC3"},{"bufferView":9,"componentType":5126,"count":24,"max":[1,0,1],"min":[0,0,-1],"type":"VEC3"},{"bufferView":10,"componentType":5126,"count":24,"max":[0.21875,0.21875],"min":[0,0],"type":"VEC2"},{"bufferView":11,"componentType":5123,"count":36,"max":[23],"min":[0],"type":"SCALAR"}],"materials":[{"pbrMetallicRoughness":{"metallicFactor":0,"roughnessFactor":1,"baseColorTexture":{"index":0}},"alphaMode":"MASK","alphaCutoff":0.05,"doubleSided":true}],"textures":[{"sampler":0,"source":0,"name":"texture"}],"samplers":[{"magFilter":9728,"minFilter":9728,"wrapS":33071,"wrapT":33071}],"images":[{"mimeType":"image/png","uri":"data:image/png;base64,"}],"meshes":[{"primitives":[{"mode":4,"attributes":{"POSITION":0,"NORMAL":1,"TEXCOORD_0":2},"indices":3,"material":0}]},{"primitives":[{"mode":4,"attributes":{"POSITION":4,"NORMAL":5,"TEXCOORD_0":6},"indices":7,"material":0}]},{"primitives":[{"mode":4,"attributes":{"POSITION":8,"NORMAL":9,"TEXCOORD_0":10},"indices":11,"material":0}]}]}