{"asset":{"version":"2.0","generator":"Blockbench 4.9.4 glTF exporter"},"scenes":[{"nodes":[4],"name":"blockbench_export"}],"scene":0,"nodes":[{"rotation":[-0.007461130106152567,0.9394689993889519,0.34193875179343225,0.020499286490270968],"translation":[-0.0013380416579383807,-0.030880501697004514,-0.012927649104455818],"name":"cuboid","mesh":0},{"rotation":[-0.4088248290278576,-0.8458841105291446,-0.31574214832944725,0.13285039139184404],"translation":[-0.0013380416579383807,-0.030880501697004514,-0.012927649104455818],"name":"cuboid","mesh":1},{"rotation":[-0.4222081974543347,0.8392841636047366,0.29760894318503345,0.1696208939398294],"translation":[-0.0013380416579383807,-0.030880501697004514,-0.012927649104455818],"name":"cuboid","mesh":2},{"rotation":[0.00030458649045213493,0.017449748351250485,-0.017449748351250485,0.9996954135095479],"translation":[0.010101258966063092,0.6764460241921386,0.012231549535893005],"name":"bone","children":[0,1,2]},{"children":[3]}],"bufferViews":[{"buffer":0,"byteOffset":0,"byteLength":2136,"target":34962,"byteStride":12},{"buffer":0,"byteOffset":2136,"byteLength":2136,"target":34962,"byteStride":12},{"buffer":0,"byteOffset":4272,"byteLength":1424,"target":34962,"byteStride":8},{"buffer":0,"byteOffset":5696,"byteLength":516,"target":34963},{"buffer":0,"byteOffset":6212,"byteLength":7584,"target":34962,"byteStride":12},{"buffer":0,"byteOffset":13796,"byteLength":7584,"target":34962,"byteStride":12},{"buffer":0,"byteOffset":21380,"byteLength":5056,"target":34962,"byteStride":8},{"buffer":0,"byteOffset":26436,"byteLength":1896,"target":34963},{"buffer":0,"byteOffset":28332,"byteLength":7584,"target":34962,"byteStride":12},{"buffer":0,"byteOffset":35916,"byteLength":7584,"target":34962,"byteStride":12},{"buffer":0,"byteOffset":43500,"byteLength":5056,"target":34962,"byteStride":8},{"buffer":0,"byteOffset":48556,"byteLength":1896,"target":34963}],"buffers":[{"byteLength":50452,"uri":"data:application/octet-stream;base64,"}],"accessors":[{"bufferView":0,"componentType":5126,"count":178,"max":[0.15998677909374237,0.09555462002754211,0.1587737500667572],"min":[-0.16501322388648987,-0.21694537997245789,-0.4037262499332428],"type":"VEC3"},{"bufferView":1,"componentType":5126,"count":178,"max":[1,1,1],"min":[-1,-1,-1],"type":"VEC3"},{"bufferView":2,"componentType":5126,"count":178,"max":[0.663281261920929,0.59375],"min":[0,0],"type":"VEC2"},{"bufferView":3,"componentType":5123,"count":258,"max":[177],"min":[0],"type":"SCALAR"},{"bufferView":4,"componentType":5126,"count":632,"max":[0.05010711029171944,0.35224422812461853,0.0962737500667572],"min":[-0.09957084059715271,0.0920010432600975,-0.03155256062746048],"type":"VEC3"},{"bufferView":5,"componentType":5126,"count":632,"max":[1,0.9238795042037964,1],"min":[-0.9956564903259277,-1,-1],"type":"VEC3"},{"bufferView":6,"componentType":5126,"count":632,"max":[0.7948408126831055,0.8450531363487244],"min":[0.00018558472220320255,0],"type":"VEC2"},{"bufferView":7,"componentType":5123,"count":948,"max":[631],"min":[0],"type":"SCALAR"},{"bufferView":8,"componentType":5126,"count":632,"max":[0.1014014258980751,0.3508395552635193,0.0962737500667572],"min":[-0.04827652871608734,0.09059638530015945,-0.03155256062746048],"type":"VEC3"},{"bufferView":9,"componentType":5126,"count":632,"max":[0.9956564903259277,0.9238795042037964,1],"min":[-1,-1,-1],"type":"VEC3"},{"bufferView":10,"componentType":5126,"count":632,"max":[0.8450531363487244,0.8515625],"min":[0,0],"type":"VEC2"},{"bufferView":11,"componentType":5123,"count":948,"max":[631],"min":[0],"type":"SCALAR"}],"materials":[{"pbrMetallicRoughness":{"metallicFactor":0,"roughnessFactor":1,"baseColorTexture":{"index":0}},"alphaMode":"MASK","alphaCutoff":0.05,"doubleSided":true}],"textures":[{"sampler":0,"source":0}],"samplers":[{"magFilter":9728,"minFilter":9728,"wrapS":33071,"wrapT":33071}],"images":[{"mimeType":"image/png","uri":"data:image/png;base64,"}],"meshes":[{"primitives":[{"mode":4,"attributes":{"POSITION":0,"NORMAL":1,"TEXCOORD_0":2},"indices":3,"material":0}]},{"primitives":[{"mode":4,"attributes":{"POSITION":4,"NORMAL":5,"TEXCOORD_0":6},"indices":7,"material":0}]},{"primitives":[{"mode":4,"attributes":{"POSITION":8,"NORMAL":9,"TEXCOORD_0":10},"indices":11,"material":0}]}]}